<svg width="50" height="51" viewBox="0 0 50 51" fill="none" xmlns="http://www.w3.org/2000/svg">
<path id="Vector" fill-rule="evenodd" clip-rule="evenodd" d="M0 22.7398C0 12.2648 -3.31137e-07 7.02591 3.25556 3.77313C6.51111 0.520356 11.7472 0.517578 22.2222 0.517578H27.7778C38.2528 0.517578 43.4917 0.517578 46.7444 3.77313C49.9972 7.02869 50 12.2648 50 22.7398V28.2954C50 38.7704 50 44.0092 46.7444 47.262C43.4889 50.5148 38.2528 50.5176 27.7778 50.5176H22.2222C11.7472 50.5176 6.50833 50.5176 3.25556 47.262C0.00277758 44.0065 0 38.7704 0 28.2954V22.7398ZM41.6667 13.0176C41.6667 14.1226 41.2277 15.1825 40.4463 15.9639C39.6649 16.7453 38.6051 17.1842 37.5 17.1842C36.3949 17.1842 35.3351 16.7453 34.5537 15.9639C33.7723 15.1825 33.3333 14.1226 33.3333 13.0176C33.3333 11.9125 33.7723 10.8527 34.5537 10.0713C35.3351 9.2899 36.3949 8.85091 37.5 8.85091C38.6051 8.85091 39.6649 9.2899 40.4463 10.0713C41.2277 10.8527 41.6667 11.9125 41.6667 13.0176ZM30.5556 28.2954C30.5556 29.7688 29.9702 31.1819 28.9284 32.2237C27.8865 33.2656 26.4734 33.8509 25 33.8509C23.5266 33.8509 22.1135 33.2656 21.0716 32.2237C20.0298 31.1819 19.4444 29.7688 19.4444 28.2954C19.4444 26.8219 20.0298 25.4089 21.0716 24.367C22.1135 23.3251 23.5266 22.7398 25 22.7398C26.4734 22.7398 27.8865 23.3251 28.9284 24.367C29.9702 25.4089 30.5556 26.8219 30.5556 28.2954ZM36.1111 28.2954C36.1111 31.2422 34.9405 34.0684 32.8567 36.1521C30.773 38.2358 27.9468 39.4065 25 39.4065C22.0531 39.4065 19.227 38.2358 17.1433 36.1521C15.0595 34.0684 13.8889 31.2422 13.8889 28.2954C13.8889 25.3485 15.0595 22.5224 17.1433 20.4386C19.227 18.3549 22.0531 17.1842 25 17.1842C27.9468 17.1842 30.773 18.3549 32.8567 20.4386C34.9405 22.5224 36.1111 25.3485 36.1111 28.2954Z" fill="#E82746"/>
</svg>
