<svg width="268" height="62" viewBox="0 0 268 62" fill="none" xmlns="http://www.w3.org/2000/svg">
<path d="M59.9435 26.2404L62.0496 18.6665L61.014 25.8526L59.9435 26.2404ZM86.2702 16.6222L68.347 23.1716L65.7517 20.2081L86.2702 16.6222ZM62.5594 16.9557L68.081 23.2721L61.3006 25.7537L62.5594 16.9541V16.9557ZM59.8216 18.5548L55.0206 22.2971L41.7052 11.067L59.8216 18.5548Z" fill="#E82746"/>
<path d="M68.5527 28.8718C69.2637 29.3139 69.8749 29.6969 71.1749 29.6969C72.475 29.6969 73.0909 29.3139 73.8003 28.8718C74.5398 28.4106 75.3791 27.8872 76.9799 27.8872C77.1446 27.8872 77.2966 27.8968 77.4455 27.9063L87.2867 16.5391L60.1113 26.4605L63.9844 28.0484C64.3787 27.9494 64.8316 27.8856 65.3763 27.8856C66.9756 27.8856 67.8132 28.4106 68.5527 28.8718Z" fill="#E82746"/>
<path d="M86.2701 16.6222L65.7516 20.2081L68.3469 23.1732L86.2701 16.6222Z" fill="#E82746"/>
<path d="M59.5732 29.697C60.8732 29.697 61.486 29.314 62.197 28.8719C62.5929 28.6245 63.0236 28.3612 63.5794 28.1697L59.7363 26.593L58.3286 26.8771L56.8607 28.8176C56.8892 28.8352 56.9209 28.8543 56.9494 28.8719C57.6604 29.314 58.2732 29.697 59.5732 29.697Z" fill="#E82746"/>
<path d="M68.0811 23.2718L62.5595 16.9554L61.3007 25.7534L68.0811 23.2718Z" fill="#E82746"/>
<path d="M55.225 22.4697L58.1655 24.9528L59.7759 24.5603L60.1828 24.3799L62.2366 17.0071L55.225 22.4697Z" fill="#E82746"/>
<path d="M60.1616 24.4578L59.155 25.7885L59.6702 26.223L60.1616 24.4578Z" fill="#E82746"/>
<path d="M59.9435 26.2403L61.0139 25.8525L62.0495 18.6664L59.9435 26.2403Z" fill="#E82746"/>
<path d="M49.2504 27.1245L57.8502 25.0292L41.3695 11.1277L49.2504 27.1245Z" fill="#E82746"/>
<path d="M58.9967 25.9962L58.5723 26.558L59.4511 26.3792L58.9967 25.9962Z" fill="#E82746"/>
<path d="M59.8216 18.5548L41.7052 11.067L55.0206 22.2986L59.8216 18.5548Z" fill="#E82746"/>
<path d="M32.7586 36.505L34.3658 28.8082L33.8021 36.047L32.7586 36.505ZM58.3996 25.1633L40.9436 32.8872L38.1598 30.1009L58.3996 25.1633ZM34.7633 27.0672L40.6854 33.0053L34.0808 35.9321L34.7633 27.0672ZM34.4434 27.139L32.4831 36.5035L27.804 33.0548L34.4434 27.1374V27.139ZM32.1348 28.8449L27.5886 32.8984L13.5687 22.5748L32.1348 28.8449Z" fill="#E82746"/>
<path d="M59.41 25.0132L32.9407 36.7156L35.1766 37.4641C35.5107 37.4002 35.8828 37.3587 36.3135 37.3587C37.916 37.3587 38.7552 37.8822 39.4947 38.3434C40.2057 38.787 40.8201 39.1684 42.1217 39.1684C43.4233 39.1684 44.0377 38.7854 44.7486 38.3434C45.0796 38.1375 45.4343 37.9221 45.8618 37.7433L43.3172 33.7106L43.8128 34.0505L50.9764 36.1539L59.4084 25.0116L59.41 25.0132Z" fill="#E82746"/>
<path d="M58.3996 25.1631L38.1598 30.1023L40.9435 32.887L58.3996 25.1631Z" fill="#E82746"/>
<path d="M27.6678 38.2077C27.7422 38.2524 27.815 38.2986 27.8879 38.3433C28.5973 38.7854 29.2101 39.1684 30.5101 39.1684C31.8101 39.1684 32.4245 38.7854 33.1355 38.3433C33.5741 38.0704 34.0523 37.7768 34.6999 37.5821L32.5781 36.8719L27.671 38.2093L27.6678 38.2077Z" fill="#E82746"/>
<path d="M40.6855 33.0053L34.7633 27.0671L34.0808 35.9305L40.6855 33.0053Z" fill="#E82746"/>
<path d="M32.4831 36.5049L34.4434 27.1388L27.804 33.0562L32.4831 36.5049Z" fill="#E82746"/>
<path d="M32.7587 36.5049L33.8006 36.0469L34.3659 28.8081L32.7587 36.5049Z" fill="#E82746"/>
<path d="M13.2377 22.6577L22.0924 38.0067C22.7195 37.6603 23.4938 37.3587 24.7083 37.3587C25.9371 37.3587 26.7145 37.6667 27.3448 38.0194L32.2757 36.6773L13.2377 22.6577Z" fill="#E82746"/>
<path d="M32.1348 28.8449L13.5687 22.5748L27.5887 32.8984L32.1348 28.8449Z" fill="#E82746"/>
<path d="M64.2727 47.6902L65.5711 39.9343L65.2972 47.1907L64.2727 47.6902ZM89.4403 35.3175L72.3072 43.7436L69.4142 41.0738L89.4403 35.3175ZM65.8989 38.1789L72.0538 43.8713L65.5727 47.063L65.8989 38.1789ZM65.5822 38.2635L63.9987 47.7014L59.185 44.4458L65.5822 38.2651V38.2635ZM63.3432 40.062L58.9617 44.2958L44.5411 34.5499L63.3432 40.062Z" fill="#E82746"/>
<path d="M64.463 47.8931L71.8846 50.0459C72.6019 49.6006 73.4348 49.1219 74.9661 49.1219C76.5685 49.1219 77.4078 49.6453 78.1472 50.1065C78.5906 50.3826 78.996 50.6347 79.5518 50.7864L90.4428 35.1262L64.463 47.8931Z" fill="#E82746"/>
<path d="M89.4405 35.3176L69.4144 41.0723L72.3074 43.7437L89.4405 35.3176Z" fill="#E82746"/>
<path d="M55.939 50.6473C56.3633 50.818 56.8605 50.9314 57.5588 50.9314C58.8589 50.9314 59.4717 50.5483 60.1826 50.1063C60.9221 49.6451 61.7614 49.1217 63.3622 49.1217C64.9631 49.1217 65.7992 49.6451 66.5387 50.1063C67.2496 50.5483 67.8609 50.9314 69.1609 50.9314C70.3358 50.9314 70.9502 50.6202 71.5804 50.234L64.1049 48.0636L55.939 50.6473Z" fill="#E82746"/>
<path d="M72.0539 43.8714L65.899 38.179L65.5712 47.0631L72.0539 43.8714Z" fill="#E82746"/>
<path d="M63.9988 47.7017L65.5823 38.2638L59.1851 44.4461L63.9988 47.7017Z" fill="#E82746"/>
<path d="M64.2728 47.6902L65.2973 47.1907L65.5713 39.9343L64.2728 47.6902Z" fill="#E82746"/>
<path d="M44.215 34.6472L53.5337 49.3977C54.099 49.5908 54.5344 49.8573 54.9366 50.1079C55.152 50.2419 55.3594 50.3696 55.5795 50.4829L63.7993 47.8833L44.215 34.6472Z" fill="#E82746"/>
<path d="M58.9634 44.2974L63.3432 40.062L44.5428 34.5515L58.9634 44.2974Z" fill="#E82746"/>
<path d="M99.0869 16.6305H104.474V23.1847L110.062 16.6305H116.193L109.69 24.2539L116.652 35.2254H110.922L106.366 27.7169L104.475 29.8538V35.2254H99.0885V16.6289L99.0869 16.6305Z" fill="#E82746"/>
<path d="M120.046 33.5655C118.451 32.2665 117.653 30.4328 117.653 28.0646V16.6287H123.04V27.4869C123.04 29.7594 124.158 30.8956 126.392 30.8956C128.608 30.8956 129.716 29.7594 129.716 27.4869V16.6287H135.103V28.0646C135.103 29.6429 134.74 30.9898 134.014 32.1069C133.287 33.2224 132.265 34.0698 130.946 34.6475C129.627 35.2252 128.109 35.514 126.391 35.514C123.754 35.514 121.64 34.8645 120.046 33.5655Z" fill="#E82746"/>
<path d="M137.54 16.6304H142.927V31.0697H151.235V35.2269H137.54V16.6304Z" fill="#E82746"/>
<path d="M153.27 20.6727H148.084V16.6304H163.843V20.6727H158.657V35.2269H153.272L153.27 20.6727Z" fill="#E82746"/>
<path d="M168.097 33.5655C166.503 32.2665 165.705 30.4328 165.705 28.0646V16.6287H171.092V27.4869C171.092 29.7594 172.208 30.8956 174.444 30.8956C176.658 30.8956 177.768 29.7594 177.768 27.4869V16.6287H183.155V28.0646C183.155 29.6429 182.792 30.9898 182.065 32.1069C181.338 33.2224 180.317 34.0698 178.998 34.6475C177.679 35.2252 176.16 35.514 174.442 35.514C171.806 35.514 169.69 34.8645 168.094 33.5655H168.097Z" fill="#E82746"/>
<path d="M185.303 16.6304H194.902C197.079 16.6304 198.722 17.2272 199.83 18.4209C200.937 19.6146 201.493 21.2217 201.493 23.242C201.493 24.474 201.187 25.5672 200.576 26.5199C199.963 27.4742 199.133 28.2099 198.082 28.7302C198.292 28.9025 198.473 29.1052 198.628 29.3366C198.78 29.568 198.951 29.9031 199.143 30.3468L201.263 35.2269H195.646L193.699 30.7521C193.545 30.4058 193.36 30.16 193.14 30.0148C192.92 29.8712 192.609 29.7978 192.209 29.7978H190.69V35.2269H185.303V16.6304ZM193.528 25.639C194.312 25.639 194.918 25.4315 195.347 25.0182C195.776 24.6033 195.992 24.0112 195.992 23.242C195.992 21.6063 195.228 20.7876 193.699 20.7876H190.692V25.639H193.528Z" fill="#E82746"/>
<path d="M203.501 16.6304H208.085L215.047 26.4768V16.6304H220.434V35.2269H215.82L208.886 25.4092V35.2269H203.501V16.6304Z" fill="#E82746"/>
<path d="M228.8 16.6304H234.503L241.582 35.2269H235.965L234.416 31.2708H228.857L227.338 35.2269H221.722L228.8 16.6304ZM233.701 27.3721L231.637 21.9143L229.574 27.3721H233.701Z" fill="#E82746"/>
<path d="M244.188 20.6727H239.002V16.6304H254.762V20.6727H249.576V35.2269H244.189V20.6727H244.188Z" fill="#E82746"/>
<path d="M99.1064 37.5621H100.071V40.0596H102.815V37.5621H103.779V43.3088H102.815V40.8113H100.071V43.3088H99.1064V37.5621Z" fill="#E82746"/>
<path d="M104.906 37.5618H108.881V38.3214H105.871V40.0609H108.553V40.8109H105.871V42.56H108.881V43.31H104.906V37.5618Z" fill="#E82746"/>
<path d="M109.775 37.5618H110.74V42.5584H113.661V43.3084H109.774L109.775 37.5618Z" fill="#E82746"/>
<path d="M114.149 43.1123V42.2553C114.698 42.4708 115.26 42.5777 115.84 42.5777C116.318 42.5777 116.665 42.5202 116.88 42.4085C117.096 42.2952 117.203 42.0846 117.203 41.775C117.203 41.5787 117.157 41.4223 117.066 41.3074C116.974 41.1909 116.825 41.0903 116.619 41.0074C116.413 40.9244 116.103 40.8302 115.69 40.7217C115.075 40.5605 114.644 40.3562 114.397 40.1105C114.15 39.8631 114.025 39.5232 114.025 39.0875C114.025 38.5769 114.212 38.1795 114.584 37.897C114.956 37.6146 115.5 37.4725 116.212 37.4725C116.526 37.4725 116.828 37.4949 117.119 37.5396C117.411 37.5842 117.648 37.6385 117.832 37.7055V38.5609C117.382 38.3902 116.887 38.3024 116.345 38.3024C115.897 38.3024 115.56 38.363 115.336 38.4811C115.113 38.5992 115.001 38.8019 115.001 39.0875C115.001 39.2599 115.042 39.3987 115.124 39.5025C115.207 39.6062 115.344 39.6988 115.536 39.7801C115.728 39.8599 116.016 39.9477 116.399 40.0435C117.066 40.2142 117.528 40.4392 117.788 40.7121C118.047 40.9866 118.177 41.3409 118.177 41.7734C118.177 42.2856 117.987 42.683 117.607 42.9687C117.226 43.2559 116.667 43.3979 115.929 43.3979C115.191 43.3979 114.599 43.3022 114.149 43.1123Z" fill="#E82746"/>
<path d="M119.115 37.5618H120.079V43.3084H119.115V37.5618Z" fill="#E82746"/>
<path d="M121.195 37.5618H122.046L125.021 41.7908V37.5618H125.977V43.3084H125.127L122.161 39.0874V43.3084H121.197L121.195 37.5618Z" fill="#E82746"/>
<path d="M127.648 42.6447C127.163 42.142 126.923 41.4446 126.923 40.5509C126.923 39.5823 127.162 38.8258 127.64 38.2848C128.118 37.7438 128.832 37.4725 129.782 37.4725C130.413 37.4725 130.976 37.5587 131.472 37.7311V38.5689C130.983 38.3917 130.446 38.3008 129.862 38.3008C129.159 38.3008 128.655 38.4875 128.351 38.8593C128.047 39.2312 127.895 39.7945 127.895 40.5509C127.895 41.901 128.524 42.5777 129.781 42.5777C130.288 42.5777 130.698 42.517 131.011 42.3989V40.7935H129.586V40.16H131.835V42.9256C131.622 43.0628 131.342 43.1745 130.999 43.2639C130.653 43.3549 130.238 43.3979 129.754 43.3979C128.832 43.3979 128.132 43.1474 127.648 42.6447Z" fill="#E82746"/>
<path d="M133.915 43.1478C133.473 42.9451 133.143 42.6211 132.924 42.1759C132.706 41.7306 132.596 41.1545 132.596 40.4539C132.596 39.4198 132.818 38.6634 133.26 38.1878C133.703 37.7123 134.381 37.4745 135.296 37.4745C135.545 37.4745 135.777 37.492 135.996 37.5271L136.146 37.1266H136.802L136.59 37.6883C137.068 37.8798 137.421 38.2006 137.652 38.6522C137.883 39.1039 137.997 39.7039 137.997 40.4539C137.997 41.4593 137.774 42.2014 137.329 42.6802C136.884 43.1605 136.207 43.3983 135.298 43.3983C135.021 43.3983 134.755 43.3744 134.501 43.3265L134.333 43.7813H133.678L133.917 43.1493L133.915 43.1478ZM135.695 38.3315C135.57 38.3123 135.439 38.3027 135.296 38.3027C134.694 38.3027 134.256 38.4671 133.982 38.7943C133.708 39.1214 133.57 39.6752 133.57 40.4539C133.57 40.9247 133.622 41.3109 133.73 41.6141C133.836 41.9173 134.001 42.1471 134.226 42.3019L135.695 38.3331V38.3315ZM136.615 42.0769C136.892 41.7434 137.032 41.2024 137.032 40.4523C137.032 39.9353 136.968 39.5188 136.845 39.2044C136.721 38.8884 136.531 38.6586 136.278 38.5166L134.791 42.5317C134.956 42.5621 135.123 42.5764 135.294 42.5764C135.896 42.5764 136.338 42.4105 136.615 42.0769Z" fill="#E82746"/>
<path d="M138.944 37.5619H141.565C142.186 37.5619 142.645 37.7231 142.946 38.0439C143.247 38.3646 143.397 38.8178 143.397 39.4019C143.397 39.8121 143.296 40.1584 143.091 40.4392C142.889 40.7233 142.601 40.9212 142.23 41.0329C142.33 41.1047 142.411 41.1845 142.469 41.2691C142.528 41.3537 142.591 41.4781 142.656 41.6377L143.373 43.307H142.382L141.682 41.7016C141.612 41.5388 141.529 41.4287 141.435 41.3664C141.34 41.3042 141.19 41.2723 140.984 41.2723H139.912V43.3054H138.948V37.5587L138.944 37.5619ZM141.307 40.4887C142.057 40.4887 142.431 40.1249 142.431 39.4003C142.431 38.6806 142.086 38.3199 141.396 38.3199H139.909V40.4871H141.307V40.4887Z" fill="#E82746"/>
<path d="M147.441 40.5254H154.268V41.2834H147.441V40.5254Z" fill="#E82746"/>
<path d="M158.489 37.5618H162.465V38.3214H159.455V40.0609H162.137V40.8109H159.455V42.56H162.465V43.31H158.489V37.5618Z" fill="#E82746"/>
<path d="M163.306 43.1123V42.2553C163.856 42.4708 164.418 42.5777 164.996 42.5777C165.474 42.5777 165.821 42.5202 166.036 42.4085C166.251 42.2952 166.359 42.0846 166.359 41.775C166.359 41.5787 166.313 41.4223 166.221 41.3074C166.129 41.1909 165.981 41.0903 165.775 41.0074C165.567 40.9244 165.258 40.8302 164.845 40.7217C164.231 40.5605 163.8 40.3562 163.553 40.1105C163.306 39.8631 163.181 39.5232 163.181 39.0875C163.181 38.5769 163.368 38.1795 163.74 37.897C164.112 37.6146 164.655 37.4725 165.368 37.4725C165.681 37.4725 165.984 37.4949 166.275 37.5396C166.566 37.5842 166.806 37.6385 166.988 37.7055V38.5609C166.539 38.3902 166.042 38.3024 165.501 38.3024C165.053 38.3024 164.717 38.363 164.492 38.4811C164.267 38.5992 164.155 38.8019 164.155 39.0875C164.155 39.2599 164.196 39.3987 164.278 39.5025C164.362 39.6062 164.498 39.6988 164.69 39.7801C164.882 39.8599 165.171 39.9477 165.555 40.0435C166.221 40.2142 166.684 40.4392 166.943 40.7121C167.203 40.9866 167.333 41.3409 167.333 41.7734C167.333 42.2856 167.143 42.683 166.763 42.9687C166.383 43.2559 165.822 43.3979 165.084 43.3979C164.346 43.3979 163.754 43.3022 163.306 43.1123Z" fill="#E82746"/>
<path d="M168.272 37.5619H170.811C171.443 37.5619 171.92 37.7374 172.241 38.0885C172.563 38.4396 172.724 38.904 172.724 39.4801C172.724 40.0498 172.549 40.5094 172.197 40.8542C171.845 41.1989 171.372 41.3712 170.778 41.3712H169.236V43.307H168.272V37.5603V37.5619ZM170.599 40.6052C170.97 40.6052 171.258 40.5063 171.458 40.3068C171.659 40.1073 171.758 39.8312 171.758 39.4801C171.758 39.1115 171.663 38.8258 171.475 38.6231C171.287 38.4221 171.008 38.3215 170.644 38.3215H169.234V40.6052H170.599Z" fill="#E82746"/>
<path d="M173.494 37.5618H177.468V38.3214H174.46V40.0609H177.142V40.8109H174.46V42.56H177.468V43.31H173.494V37.5618Z" fill="#E82746"/>
<path d="M178.363 37.5619H180.984C181.605 37.5619 182.064 37.7231 182.365 38.0439C182.665 38.3646 182.816 38.8178 182.816 39.4019C182.816 39.8121 182.715 40.1584 182.51 40.4392C182.308 40.7233 182.019 40.9212 181.647 41.0329C181.747 41.1047 181.828 41.1845 181.886 41.2691C181.945 41.3537 182.007 41.4781 182.072 41.6377L182.789 43.307H181.798L181.098 41.7016C181.028 41.5388 180.944 41.4287 180.851 41.3664C180.757 41.3042 180.607 41.2723 180.4 41.2723H179.328V43.3054H178.363V37.5587V37.5619ZM180.727 40.4887C181.478 40.4887 181.852 40.1249 181.852 39.4003C181.852 38.6806 181.506 38.3199 180.816 38.3199H179.329V40.4871H180.729L180.727 40.4887Z" fill="#E82746"/>
<path d="M184.311 42.6447C183.826 42.142 183.585 41.4446 183.585 40.5509C183.585 39.5823 183.823 38.8258 184.303 38.2848C184.781 37.7438 185.495 37.4725 186.445 37.4725C187.075 37.4725 187.641 37.5587 188.135 37.7311V38.5689C187.645 38.3917 187.109 38.3008 186.524 38.3008C185.821 38.3008 185.318 38.4875 185.014 38.8593C184.711 39.2312 184.559 39.7945 184.559 40.5509C184.559 41.901 185.186 42.5777 186.444 42.5777C186.95 42.5777 187.36 42.517 187.674 42.3989V40.7935H186.249V40.16H188.497V42.9256C188.285 43.0628 188.005 43.1745 187.661 43.2639C187.316 43.3549 186.903 43.3979 186.418 43.3979C185.497 43.3979 184.795 43.1474 184.311 42.6447Z" fill="#E82746"/>
<path d="M191.446 37.5618H195.979V38.3214H193.439V40.0609H195.651V40.8109H193.439V42.56H195.979V43.31H192.481V41.8195H190.869L190.304 43.31H189.268L191.446 37.5618ZM192.483 41.0695V38.3038H192.138L191.119 41.0695H192.483Z" fill="#E82746"/>
<path d="M196.917 37.5619H199.537C200.158 37.5619 200.617 37.7231 200.918 38.0439C201.219 38.3646 201.369 38.8178 201.369 39.4019C201.369 39.8121 201.268 40.1584 201.064 40.4392C200.861 40.7233 200.573 40.9212 200.201 41.0329C200.301 41.1047 200.381 41.1845 200.44 41.2691C200.499 41.3537 200.56 41.4781 200.625 41.6377L201.343 43.307H200.351L199.651 41.7016C199.582 41.5388 199.498 41.4287 199.404 41.3664C199.311 41.3042 199.161 41.2723 198.953 41.2723H197.881V43.3054H196.917V37.5587V37.5619ZM199.282 40.4887C200.033 40.4887 200.407 40.1249 200.407 39.4003C200.407 38.6806 200.061 38.3199 199.371 38.3199H197.884V40.4871H199.284L199.282 40.4887Z" fill="#E82746"/>
<path d="M202.318 37.5618H204.63C205.485 37.5618 206.114 37.7916 206.514 38.2496C206.915 38.7076 207.116 39.4481 207.116 40.4726C207.116 41.4525 206.915 42.1706 206.514 42.627C206.112 43.0818 205.485 43.31 204.63 43.31H202.318V37.5618ZM204.478 42.5584C204.874 42.5584 205.19 42.5009 205.431 42.3844C205.669 42.2695 205.851 42.0605 205.971 41.7557C206.091 41.4509 206.152 41.0232 206.152 40.471C206.152 39.9109 206.096 39.4768 205.984 39.1688C205.873 38.8592 205.696 38.6406 205.458 38.5129C205.219 38.3852 204.893 38.3214 204.479 38.3214H203.284V42.5584H204.479H204.478Z" fill="#E82746"/>
<path d="M208.063 37.5618H212.037V38.3214H209.029V40.0609H211.711V40.8109H209.029V42.56H212.037V43.31H208.063V37.5618Z" fill="#E82746"/>
<path d="M216.031 40.5254H222.857V41.2834H216.031V40.5254Z" fill="#E82746"/>
<path d="M228.556 38.3214H226.733V37.5618H231.336V38.3214H229.522V43.3084H228.557L228.556 38.3214Z" fill="#E82746"/>
<path d="M232.106 37.5618H233.07V43.3084H232.106V37.5618Z" fill="#E82746"/>
<path d="M234.187 37.5619H235.151V40.203L237.577 37.5619H238.692L236.595 39.8823L238.782 43.307H237.756L235.993 40.4967L235.153 41.4063V43.3054H234.188V37.5587L234.187 37.5619Z" fill="#E82746"/>
<path d="M240.286 43.1478C239.844 42.9451 239.513 42.6211 239.295 42.1759C239.075 41.7306 238.967 41.1545 238.967 40.4539C238.967 39.4198 239.189 38.6634 239.631 38.1878C240.074 37.7123 240.752 37.4745 241.667 37.4745C241.914 37.4745 242.148 37.492 242.365 37.5271L242.517 37.1266H243.171L242.959 37.6883C243.437 37.8798 243.79 38.2006 244.022 38.6522C244.253 39.1039 244.367 39.7039 244.367 40.4539C244.367 41.4593 244.143 42.2014 243.699 42.6802C243.254 43.1605 242.576 43.3983 241.667 43.3983C241.39 43.3983 241.124 43.3744 240.87 43.3265L240.703 43.7813H240.047L240.286 43.1478ZM242.066 38.3315C241.941 38.3123 241.809 38.3027 241.667 38.3027C241.065 38.3027 240.627 38.4671 240.353 38.7943C240.077 39.1214 239.941 39.6752 239.941 40.4539C239.941 40.9247 239.993 41.3109 240.101 41.6141C240.205 41.9173 240.372 42.1471 240.595 42.3019L242.066 38.3331V38.3315ZM242.986 42.0769C243.263 41.7434 243.402 41.2024 243.402 40.4523C243.402 39.9353 243.341 39.5188 243.217 39.2044C243.094 38.8884 242.904 38.6586 242.65 38.5166L241.165 42.5317C241.33 42.5621 241.498 42.5764 241.669 42.5764C242.27 42.5764 242.71 42.4105 242.988 42.0769H242.986Z" fill="#E82746"/>
<path d="M245.314 37.5619H248.077C248.631 37.5619 249.046 37.6944 249.325 37.9593C249.602 38.2242 249.741 38.6024 249.741 39.0971C249.741 39.4003 249.681 39.6589 249.559 39.8679C249.439 40.0802 249.271 40.2413 249.06 40.3546C249.35 40.4392 249.572 40.5829 249.729 40.7871C249.885 40.9914 249.963 41.2802 249.963 41.6473C249.963 42.2011 249.814 42.6144 249.516 42.8921C249.219 43.1681 248.78 43.307 248.202 43.307H245.315V37.5603L245.314 37.5619ZM247.944 40.0163C248.546 40.0163 248.847 39.7355 248.847 39.1769C248.847 38.8689 248.772 38.6439 248.623 38.5035C248.476 38.3646 248.213 38.2944 247.836 38.2944H246.278V40.0163H247.944ZM247.996 42.5952C248.345 42.5952 248.596 42.5202 248.755 42.3718C248.911 42.2234 248.987 41.9697 248.987 41.6122C248.987 41.3106 248.907 41.0871 248.745 40.9435C248.584 40.7999 248.302 40.7297 247.9 40.7297H246.28V42.5936H247.998L247.996 42.5952Z" fill="#E82746"/>
</svg>
