<svg width="1440" height="60" viewBox="0 0 1440 60" fill="none" xmlns="http://www.w3.org/2000/svg">
<path d="M778.5 59.3593C758.455 -65.1304 674.664 59.3593 519 59.3593C475.299 -56.2383 447.85 59.3593 259.5 59.3593C176.177 -23.3564 176.046 55.3355 24.4712 59.3593H0C8.57397 59.5756 16.7207 59.565 24.4712 59.3593H259.5H519H778.5H1038H1297.5H1557H1816.5H2076C2010.27 -41.9124 2005.21 59.3593 1816.5 59.3593C1756 -73.0348 1706.16 59.3596 1557 59.3593C1508.24 -38.9483 1448.29 59.3593 1297.5 59.3593C1235.2 -49.3224 1194.75 59.3593 1038 59.3593C919.536 -63.6486 930.372 59.3593 778.5 59.3593Z" fill="#292939"/>
</svg>
