<svg width="1440" height="77" viewBox="0 0 1440 77" fill="none" xmlns="http://www.w3.org/2000/svg">
<path d="M740.625 76.2284C648.713 -70.232 638.405 76.2284 493.75 76.2284C397.028 -62.368 401.586 71.7025 261.56 76.2284H246.875C246.875 -72.4723 135.137 59.9999 0.00012207 76.2284H246.875C251.941 76.3864 256.833 76.3812 261.56 76.2284H493.75H740.625H987.5H1234.38H1481.25H1728.13C1736.34 76.6244 1744.13 76.6034 1751.52 76.2284H1975C1889.08 -50.9267 1883.93 69.5083 1751.52 76.2284H1728.13C1631.71 -81.4391 1632.09 76.2284 1481.25 76.2284C1388.14 -68.6392 1388.82 76.2284 1234.38 76.2284C1146.93 -53.7749 1154.49 76.2284 987.5 76.2284C886.482 -94.121 900.913 76.2284 740.625 76.2284Z" fill="#1C1C28"/>
</svg>
